Coordinates
version=1
nRows=12
nColumns=24
inDegrees=yes

Units are S.I. units (second, meters, Newtons, ...)
Angles are in degrees.

endheader
time	pelvis_tilt	pelvis_list	pelvis_rotation	pelvis_tx	pelvis_ty	pelvis_tz	hip_flexion_r	hip_adduction_r	hip_rotation_r	knee_angle_r	ankle_angle_r	subtalar_angle_r	mtp_angle_r	hip_flexion_l	hip_adduction_l	hip_rotation_l	knee_angle_l	ankle_angle_l	subtalar_angle_l	mtp_angle_l	lumbar_extension	lumbar_bending	lumbar_rotation
      6.91000000	     -3.72198480	      9.52985326	    -19.94065159	     -0.78023607	      0.63215283	      0.16672971	     -1.53270343	     -8.78037244	     15.32836660	    -53.20420516	    -25.24840588	    -21.38364775	      0.00000000	     35.34758488	      1.83251457	    -12.84250632	    -33.77728531	      8.50870312	    -15.08477512	      0.00000000	     -8.57465360	    -15.82937506	     15.64693270
      6.92000000	     -3.76854583	      9.67922330	    -20.16451041	     -0.76928151	      0.63571769	      0.16675715	      1.47673454	     -8.05217960	     15.96557480	    -56.94538882	    -26.54194344	    -24.83072127	      0.00000000	     34.00306395	      2.25178557	    -13.32462246	    -33.02606651	      9.48395630	    -14.26617160	      0.00000000	     -8.72322177	    -15.80508637	     15.12254155
      6.93000000	     -3.79267566	      9.63521645	    -20.20852094	     -0.75818201	      0.63955439	      0.16665975	      4.22570233	     -7.10377429	     16.37370686	    -60.08828398	    -26.35663256	    -27.85936424	      0.00000000	     32.50286682	      2.70737122	    -13.37724308	    -32.10070886	     10.19622945	    -13.82814240	      0.00000000	     -8.91315401	    -15.51151163	     14.32220583
      6.94000000	     -3.78182588	      9.23764424	    -20.02719183	     -0.74692698	      0.64372740	      0.16642805	      6.61081286	     -5.80902954	     16.48472883	    -62.56300319	    -24.77377043	    -30.21171552	      0.00000000	     30.75834872	      3.08409575	    -12.79431064	    -30.98428805	     10.68695700	    -13.70179169	      0.00000000	     -9.22711548	    -14.78272835	     13.39811721
      6.95000000	     -3.82433949	      8.61852626	    -19.72463392	     -0.73564429	      0.64802411	      0.16620659	      8.83021709	     -4.26689264	     16.42588564	    -64.43696613	    -22.65593906	    -32.21322309	      0.00000000	     28.93058848	      3.30100346	    -11.95662164	    -29.74469029	     11.02599128	    -13.73452370	      0.00000000	     -9.51160450	    -13.78505887	     12.43240678
      6.96000000	     -3.88560894	      7.80738039	    -19.24567093	     -0.72432243	      0.65243316	      0.16592508	     10.88751265	     -2.59156934	     16.06128683	    -65.75119055	    -19.76958171	    -33.12302011	      0.00000000	     26.96598713	      3.43848808	    -10.69719356	    -28.29307138	     10.98433543	    -14.25720929	      0.00000000	     -9.81447481	    -12.55730899	     11.41843616
      6.97000000	     -3.95554316	      6.88743864	    -18.61171958	     -0.71304315	      0.65682847	      0.16562569	     12.83166224	     -0.89669943	     15.41497504	    -66.55150457	    -16.88605667	    -33.42938291	      0.00000000	     24.93420587	      3.48040960	     -9.20787030	    -26.74106548	     10.89810086	    -14.74369420	      0.00000000	    -10.13667215	    -11.21401474	     10.35551725
      6.98000000	     -4.04062695	      5.89852637	    -17.86024301	     -0.70185002	      0.66111894	      0.16534922	     14.70348381	      0.75147395	     14.51023412	    -66.86450185	    -14.29150002	    -33.32047728	      0.00000000	     22.88142883	      3.40334239	     -7.59836880	    -25.11921286	     10.72154910	    -15.22052044	      0.00000000	    -10.45586117	     -9.81074055	      9.31652395
      6.99000000	     -4.15443267	      4.89733212	    -17.00705076	     -0.69079509	      0.66518861	      0.16508908	     16.55142357	      2.27804906	     13.37593523	    -66.72743156	    -12.10802559	    -33.01173579	      0.00000000	     20.88080805	      3.22265020	     -5.95531194	    -23.48688855	     10.51268396	    -15.61161862	      0.00000000	    -10.74870093	     -8.40905157	      8.30477369
      7.00000000	     -4.29556447	      3.91981122	    -16.06248198	     -0.67989975	      0.66895705	      0.16483771	     18.38081320	      3.62899873	     12.04110634	    -66.15001302	    -10.35976099	    -32.70443111	      0.00000000	     18.97591652	      2.95635766	     -4.35453929	    -21.89519333	     10.30761300	    -15.85592184	      0.00000000	    -11.01107342	     -7.04805876	      7.32708138
      7.01000000	     -4.53262519	      2.97642970	    -15.01406547	     -0.66919508	      0.67229519	      0.16458134	     20.24439495	      4.81626117	     10.55426118	    -65.12003902	     -9.36327340	    -32.88180508	      0.00000000	     17.30278676	      2.57295180	     -2.94653734	    -20.45749163	     10.33645870	    -15.61333251	      0.00000000	    -11.16470931	     -5.70849300	      6.32105295
      7.02000000	     -4.60686126	      2.08778402	    -13.92171837	     -0.65860350	      0.67540435	      0.16428140	     21.87990426	      5.71212405	      8.93542528	    -63.68004544	     -8.14362159	    -32.68584305	      0.00000000	     15.51028629	      2.22283664	     -1.52948573	    -18.99437253	     10.16469131	    -15.63938227	      0.00000000	    -11.49445012	     -4.49419658	      5.48915697
